<svg version="1.2" xmlns="http://www.w3.org/2000/svg" viewBox="0 0 593 90" width="593" height="90">
	<style>
		tspan { white-space:pre } 
		.s0 { fill: #010f1a } 
	</style>
	<g id="Capa 1">
		<g id="&lt;Group&gt;">
			<g id="&lt;Group&gt;">
				<g id="&lt;Group&gt;" style="mix-blend-mode: multiply">
					<g id="&lt;Group&gt;">
						<path id="&lt;Compound Path&gt;" class="s0" d="m31.82 20.79h-5.81v5.94h-1.38v-5.94h-5.84v-1.34h5.84v-5.74h1.38v5.74h5.81z"/>
					</g>
				</g>
				<g id="&lt;Group&gt;" style="mix-blend-mode: multiply">
					<g id="&lt;Group&gt;">
						<path id="&lt;Compound Path&gt;" class="s0" d="m81.63 20.79h-5.81v5.94h-1.38v-5.94h-5.84v-1.34h5.84v-5.74h1.38v5.74h5.81z"/>
					</g>
				</g>
				<g id="&lt;Group&gt;" style="mix-blend-mode: multiply">
					<g id="&lt;Group&gt;">
						<path id="&lt;Compound Path&gt;" class="s0" d="m131.44 20.79h-5.81v5.94h-1.38v-5.94h-5.84v-1.34h5.84v-5.74h1.38v5.74h5.81z"/>
					</g>
				</g>
				<g id="&lt;Group&gt;" style="mix-blend-mode: multiply">
					<g id="&lt;Group&gt;">
						<path id="&lt;Compound Path&gt;" class="s0" d="m181.25 20.79h-5.81v5.94h-1.38v-5.94h-5.84v-1.34h5.84v-5.74h1.38v5.74h5.81z"/>
					</g>
				</g>
				<g id="&lt;Group&gt;" style="mix-blend-mode: multiply">
					<g id="&lt;Group&gt;">
						<path id="&lt;Compound Path&gt;" class="s0" d="m231.06 20.79h-5.81v5.94h-1.38v-5.94h-5.84v-1.34h5.84v-5.74h1.38v5.74h5.81z"/>
					</g>
				</g>
				<g id="&lt;Group&gt;" style="mix-blend-mode: multiply">
					<g id="&lt;Group&gt;">
						<path id="&lt;Compound Path&gt;" class="s0" d="m280.87 20.79h-5.81v5.94h-1.37v-5.94h-5.84v-1.34h5.84v-5.74h1.37v5.74h5.81z"/>
					</g>
				</g>
				<g id="&lt;Group&gt;" style="mix-blend-mode: multiply">
					<g id="&lt;Group&gt;">
						<path id="&lt;Compound Path&gt;" class="s0" d="m330.68 20.79h-5.81v5.94h-1.37v-5.94h-5.84v-1.34h5.84v-5.74h1.37v5.74h5.81z"/>
					</g>
				</g>
				<g id="&lt;Group&gt;" style="mix-blend-mode: multiply">
					<g id="&lt;Group&gt;">
						<path id="&lt;Compound Path&gt;" class="s0" d="m380.49 20.79h-5.8v5.94h-1.38v-5.94h-5.84v-1.34h5.84v-5.74h1.38v5.74h5.8z"/>
					</g>
				</g>
				<g id="&lt;Group&gt;" style="mix-blend-mode: multiply">
					<g id="&lt;Group&gt;">
						<path id="&lt;Compound Path&gt;" class="s0" d="m430.3 20.79h-5.8v5.94h-1.38v-5.94h-5.84v-1.34h5.84v-5.74h1.38v5.74h5.8z"/>
					</g>
				</g>
				<g id="&lt;Group&gt;" style="mix-blend-mode: multiply">
					<g id="&lt;Group&gt;">
						<path id="&lt;Compound Path&gt;" class="s0" d="m480.12 20.79h-5.81v5.94h-1.38v-5.94h-5.84v-1.34h5.84v-5.74h1.38v5.74h5.81z"/>
					</g>
				</g>
				<g id="&lt;Group&gt;" style="mix-blend-mode: multiply">
					<g id="&lt;Group&gt;">
						<path id="&lt;Compound Path&gt;" class="s0" d="m529.93 20.79h-5.81v5.94h-1.38v-5.94h-5.84v-1.34h5.84v-5.74h1.38v5.74h5.81z"/>
					</g>
				</g>
				<g id="&lt;Group&gt;" style="mix-blend-mode: multiply">
					<g id="&lt;Group&gt;">
						<path id="&lt;Compound Path&gt;" class="s0" d="m579.74 20.79h-5.81v5.94h-1.38v-5.94h-5.84v-1.34h5.84v-5.74h1.38v5.74h5.81z"/>
					</g>
				</g>
			</g>
			<g id="&lt;Group&gt;">
				<g id="&lt;Group&gt;" style="mix-blend-mode: multiply">
					<g id="&lt;Group&gt;">
						<path id="&lt;Compound Path&gt;" class="s0" d="m31.82 72.86h-5.81v5.94h-1.38v-5.94h-5.84v-1.35h5.84v-5.74h1.38v5.74h5.81z"/>
					</g>
				</g>
				<g id="&lt;Group&gt;" style="mix-blend-mode: multiply">
					<g id="&lt;Group&gt;">
						<path id="&lt;Compound Path&gt;" class="s0" d="m81.63 72.86h-5.81v5.94h-1.38v-5.94h-5.84v-1.35h5.84v-5.74h1.38v5.74h5.81z"/>
					</g>
				</g>
				<g id="&lt;Group&gt;" style="mix-blend-mode: multiply">
					<g id="&lt;Group&gt;">
						<path id="&lt;Compound Path&gt;" class="s0" d="m131.44 72.86h-5.81v5.94h-1.38v-5.94h-5.84v-1.35h5.84v-5.74h1.38v5.74h5.81z"/>
					</g>
				</g>
				<g id="&lt;Group&gt;" style="mix-blend-mode: multiply">
					<g id="&lt;Group&gt;">
						<path id="&lt;Compound Path&gt;" class="s0" d="m181.25 72.86h-5.81v5.94h-1.38v-5.94h-5.84v-1.35h5.84v-5.74h1.38v5.74h5.81z"/>
					</g>
				</g>
				<g id="&lt;Group&gt;" style="mix-blend-mode: multiply">
					<g id="&lt;Group&gt;">
						<path id="&lt;Compound Path&gt;" class="s0" d="m231.06 72.86h-5.81v5.94h-1.38v-5.94h-5.84v-1.35h5.84v-5.74h1.38v5.74h5.81z"/>
					</g>
				</g>
				<g id="&lt;Group&gt;" style="mix-blend-mode: multiply">
					<g id="&lt;Group&gt;">
						<path id="&lt;Compound Path&gt;" class="s0" d="m280.87 72.86h-5.81v5.94h-1.37v-5.94h-5.84v-1.35h5.84v-5.74h1.37v5.74h5.81z"/>
					</g>
				</g>
				<g id="&lt;Group&gt;" style="mix-blend-mode: multiply">
					<g id="&lt;Group&gt;">
						<path id="&lt;Compound Path&gt;" class="s0" d="m330.68 72.86h-5.81v5.94h-1.37v-5.94h-5.84v-1.35h5.84v-5.74h1.37v5.74h5.81z"/>
					</g>
				</g>
				<g id="&lt;Group&gt;" style="mix-blend-mode: multiply">
					<g id="&lt;Group&gt;">
						<path id="&lt;Compound Path&gt;" class="s0" d="m380.49 72.86h-5.8v5.94h-1.38v-5.94h-5.84v-1.35h5.84v-5.74h1.38v5.74h5.8z"/>
					</g>
				</g>
				<g id="&lt;Group&gt;" style="mix-blend-mode: multiply">
					<g id="&lt;Group&gt;">
						<path id="&lt;Compound Path&gt;" class="s0" d="m430.3 72.86h-5.8v5.94h-1.38v-5.94h-5.84v-1.35h5.84v-5.74h1.38v5.74h5.8z"/>
					</g>
				</g>
				<g id="&lt;Group&gt;" style="mix-blend-mode: multiply">
					<g id="&lt;Group&gt;">
						<path id="&lt;Compound Path&gt;" class="s0" d="m480.12 72.86h-5.81v5.94h-1.38v-5.94h-5.84v-1.35h5.84v-5.74h1.38v5.74h5.81z"/>
					</g>
				</g>
				<g id="&lt;Group&gt;" style="mix-blend-mode: multiply">
					<g id="&lt;Group&gt;">
						<path id="&lt;Compound Path&gt;" class="s0" d="m529.93 72.86h-5.81v5.94h-1.38v-5.94h-5.84v-1.35h5.84v-5.74h1.38v5.74h5.81z"/>
					</g>
				</g>
				<g id="&lt;Group&gt;" style="mix-blend-mode: multiply">
					<g id="&lt;Group&gt;">
						<path id="&lt;Compound Path&gt;" class="s0" d="m579.74 72.86h-5.81v5.94h-1.38v-5.94h-5.84v-1.35h5.84v-5.74h1.38v5.74h5.81z"/>
					</g>
				</g>
			</g>
		</g>
	</g>
</svg>